<svg width="48" height="47" viewBox="0 0 48 47" fill="none" xmlns="http://www.w3.org/2000/svg">
<path d="M41.9999 9.07191H35.7719C35.8296 8.11459 35.7117 7.15477 35.4239 6.23991C35.0166 4.94787 34.2693 3.78922 33.2599 2.88555C32.2507 1.98187 31.0169 1.36647 29.6879 1.10391C28.577 0.876021 27.4292 0.898197 26.3279 1.16883C25.2264 1.43947 24.199 1.95178 23.3202 2.66863C22.4415 3.38548 21.7332 4.2889 21.2467 5.3134C20.7603 6.3379 20.5079 7.4578 20.5079 8.59191C20.5079 8.74791 20.5079 8.91591 20.5079 9.07191H14.2919C12.9403 9.07509 11.6449 9.61342 10.6891 10.5692C9.73339 11.5249 9.19505 12.8203 9.19188 14.1719V19.7279C8.14037 19.6443 7.08294 19.7793 6.08614 20.1245C5.08935 20.4695 4.17475 21.0171 3.3999 21.7329C2.62506 22.4486 2.00673 23.3169 1.58383 24.2834C1.16094 25.2497 0.942627 26.2931 0.942627 27.3479C0.942627 28.4027 1.16094 29.4462 1.58383 30.4125C2.00673 31.3788 2.62506 32.2472 3.3999 32.963C4.17475 33.6786 5.08935 34.2263 6.08614 34.5714C7.08294 34.9164 8.14037 35.0514 9.19188 34.9679V41.8799C9.19505 43.2315 9.73339 44.5269 10.6891 45.4827C11.6449 46.4384 12.9403 46.9767 14.2919 46.9799H41.9999C43.3515 46.9767 44.6469 46.4384 45.6025 45.4827C46.5583 44.5269 47.0967 43.2315 47.0998 41.8799V14.1719C47.0967 12.8203 46.5583 11.5249 45.6025 10.5692C44.6469 9.61342 43.3515 9.07509 41.9999 9.07191ZM44.0998 41.8799C44.0967 42.4359 43.8744 42.9683 43.4812 43.3614C43.0882 43.7544 42.5559 43.9767 41.9999 43.9799H14.2919C13.7359 43.9767 13.2036 43.7544 12.8104 43.3614C12.4173 42.9683 12.195 42.4359 12.1919 41.8799V33.0959C12.1854 32.8592 12.1234 32.6271 12.0109 32.4188C11.8983 32.2103 11.7383 32.0312 11.5439 31.8959C11.2919 31.7262 10.9956 31.6344 10.6919 31.6319C10.5119 31.6356 10.3336 31.668 10.1639 31.7279C9.3831 32.0202 8.53803 32.097 7.71736 31.95C6.8967 31.8032 6.13071 31.4381 5.49979 30.8931C4.86888 30.3482 4.39631 29.6433 4.13169 28.8527C3.86708 28.0622 3.82015 27.2148 3.99588 26.3999C4.13481 25.7468 4.41296 25.1313 4.81137 24.5954C5.20977 24.0594 5.71905 23.6159 6.30449 23.2946C6.88994 22.9734 7.53776 22.7822 8.20378 22.7342C8.8698 22.686 9.53836 22.7822 10.1639 23.0159C10.3918 23.0987 10.6364 23.1254 10.8768 23.0939C11.1173 23.0622 11.3466 22.9733 11.5455 22.8344C11.7443 22.6956 11.9069 22.511 12.0194 22.296C12.1319 22.0812 12.191 21.8424 12.1919 21.5999V14.1719C12.1919 13.615 12.4131 13.0808 12.807 12.687C13.2008 12.2932 13.7349 12.0719 14.2919 12.0719H22.3319C22.5705 12.0738 22.8061 12.0182 23.0188 11.9099C23.2316 11.8016 23.4151 11.6437 23.5539 11.4495C23.6928 11.2554 23.7829 11.0307 23.8167 10.7944C23.8505 10.5581 23.8267 10.3172 23.7478 10.0919C23.5912 9.60721 23.5103 9.10128 23.5079 8.59191C23.5066 7.91695 23.6525 7.24981 23.9352 6.63697C24.2181 6.02412 24.6311 5.48029 25.1455 5.04334C25.6601 4.60641 26.2635 4.28685 26.914 4.10695C27.5646 3.92704 28.2465 3.8911 28.9123 4.00164C29.5782 4.11217 30.212 4.36651 30.7695 4.74696C31.3271 5.12742 31.7949 5.62482 32.1406 6.20455C32.4862 6.78427 32.7015 7.43238 32.7711 8.10375C32.8407 8.7751 32.7631 9.45357 32.5438 10.0919C32.465 10.3172 32.4414 10.5581 32.4752 10.7944C32.5089 11.0307 32.599 11.2554 32.7378 11.4495C32.8767 11.6437 33.0602 11.8016 33.2729 11.9099C33.4855 12.0182 33.7212 12.0738 33.9599 12.0719H41.9999C42.5568 12.0719 43.091 12.2932 43.4849 12.687C43.8786 13.0808 44.0998 13.615 44.0998 14.1719V41.8799Z" fill="#1D1C1D"/>
<path d="M35.9998 25.8121H29.9998V20.4001C29.9998 20.0023 29.8417 19.6207 29.5604 19.3395C29.2792 19.0582 28.8976 18.9001 28.4998 18.9001C28.102 18.9001 27.7204 19.0582 27.4391 19.3395C27.1579 19.6207 26.9998 20.0023 26.9998 20.4001V25.8121H21.5998C21.2267 25.8456 20.8796 26.0175 20.6267 26.2939C20.374 26.5704 20.2339 26.9314 20.2339 27.3061C20.2339 27.6807 20.374 28.0419 20.6267 28.3183C20.8796 28.5948 21.2267 28.7667 21.5998 28.8001H27.0118V34.8001C27.0452 35.1732 27.2171 35.5203 27.4936 35.7732C27.77 36.0259 28.1312 36.166 28.5058 36.166C28.8803 36.166 29.2415 36.0259 29.518 35.7732C29.7944 35.5203 29.9663 35.1732 29.9998 34.8001V28.8001H35.9998C36.3976 28.8001 36.7792 28.642 37.0604 28.3608C37.3417 28.0795 37.4998 27.6979 37.4998 27.3001C37.4998 26.9023 37.3417 26.5207 37.0604 26.2395C36.7792 25.9582 36.3976 25.8001 35.9998 25.8001V25.8121Z" fill="#1D1C1D"/>
</svg>

